M48
INCH,TZ
VER,1
FMAT,2
DETECT,ON
ATC,ON
T1C0.14900
T2C0.02362
T3C0.03543
T4C0.03500
T5C0.03917
T6C0.04000
T7C0.10433
%
T1
X0.19000Y2.38000
Y4.00000
X2.81000Y2.38000
Y4.00000
T2
X0.23622Y2.74606
X0.32480Y3.72047
X1.74213Y3.77953
X1.77165Y2.77559
X1.35827Y3.18898
T3
X2.46616Y2.32817
Y2.46597
X2.48000Y3.32819
Y3.84000
X1.60220Y2.40000
X1.74000
X2.00000
X2.13780
X1.18000Y3.32000
Y3.83181
X0.66000Y3.18000
X1.17181
X0.66000Y3.02000
X1.17181
X0.49803Y3.38000
Y3.57685
X1.92000Y3.32819
Y3.84000
X2.06000Y3.32819
Y3.84000
X2.20000Y3.32819
Y3.84000
X2.34000Y3.32819
Y3.84000
X1.32000Y3.32000
Y3.83181
X1.94000Y3.16000
Y2.64819
X1.54597Y3.09604
Y3.23384
X1.78000Y3.16000
Y2.64819
X1.52000Y2.84000
Y2.70220
X1.62197Y3.48315
Y3.68000
X1.46197Y3.48315
Y3.68000
X1.77803Y3.48000
Y3.67685
X2.10000Y3.16000
Y2.64819
X2.26000Y3.16000
Y2.64819
X2.42000Y3.16000
Y2.64819
X2.58000Y3.16000
Y2.64819
X2.74000Y3.16000
Y2.64819
T4
X1.24000Y2.44000
Y2.34000
X0.64000
Y2.44000
X0.44000Y2.34000
Y2.44000
X0.54000Y2.34000
Y2.44000
X0.94000Y2.34000
Y2.44000
X0.74000Y2.34000
Y2.44000
X0.84000Y2.34000
Y2.44000
X1.14000Y2.34000
Y2.44000
X1.04000Y2.34000
Y2.44000
X1.34000Y2.34000
X1.30000Y4.06000
X1.24000Y2.56000
Y2.86000
X0.64000
Y2.56000
X0.54000Y2.86000
X0.44000
Y2.56000
X0.54000
X0.94000Y2.86000
Y2.56000
X0.84000Y2.86000
X0.74000
Y2.56000
X0.84000
X1.14000Y2.86000
X1.04000
Y2.56000
X1.14000
X0.66000Y3.64000
Y3.34000
X0.96000
Y3.64000
X0.76000Y3.34000
X0.86000
X0.76000Y3.64000
X0.86000
X0.14000Y3.22000
X0.54000Y4.06000
X2.86000Y3.60000
Y3.34000
T5
X1.34000Y2.44000
X1.20000Y4.06000
X0.24000Y3.22000
X0.44000Y4.06000
X2.76000Y3.60000
Y3.34000
T6
X0.14000Y3.78000
Y3.68000
X0.19000Y3.73000
X0.13000Y2.91000
X0.18000Y2.96000
X0.08000
X0.13000Y2.63000
X0.18000Y2.68000
X0.08000
X0.14000Y3.44000
X0.19000Y3.49000
X0.14000Y3.54000
T7
X0.96000Y3.82000
Y4.06803
X0.77299Y3.94402
M30
